<mxfile host="app.diagrams.net" modified="2023-06-11T11:31:35.266Z" agent="Mozilla/5.0 (Windows NT 10.0; Win64; x64) AppleWebKit/537.36 (KHTML, like Gecko) Chrome/114.0.0.0 Safari/537.36" etag="dOTzbMJrutYxCfzKnwNr" version="21.3.8" type="device" pages="2">
  <diagram name="Page-1" id="j45iKqVJKdutOzGnc8Mu">
    <mxGraphModel dx="1434" dy="729" grid="1" gridSize="10" guides="1" tooltips="1" connect="1" arrows="1" fold="1" page="1" pageScale="1" pageWidth="850" pageHeight="1100" math="0" shadow="0">
      <root>
        <mxCell id="0" />
        <mxCell id="1" parent="0" />
        <mxCell id="96hM-0ZTG6xV_9lNYvn0-1" value="" style="whiteSpace=wrap;html=1;aspect=fixed;" vertex="1" parent="1">
          <mxGeometry x="70" y="270" width="680" height="680" as="geometry" />
        </mxCell>
        <mxCell id="96hM-0ZTG6xV_9lNYvn0-2" value="HEADER" style="rounded=0;whiteSpace=wrap;html=1;" vertex="1" parent="1">
          <mxGeometry x="90" y="290" width="640" height="50" as="geometry" />
        </mxCell>
        <mxCell id="96hM-0ZTG6xV_9lNYvn0-3" value="FILTERS" style="rounded=1;whiteSpace=wrap;html=1;" vertex="1" parent="1">
          <mxGeometry x="90" y="360" width="640" height="50" as="geometry" />
        </mxCell>
        <mxCell id="96hM-0ZTG6xV_9lNYvn0-4" value="MAIN&amp;nbsp;" style="rounded=0;whiteSpace=wrap;html=1;" vertex="1" parent="1">
          <mxGeometry x="90" y="430" width="640" height="420" as="geometry" />
        </mxCell>
        <mxCell id="96hM-0ZTG6xV_9lNYvn0-5" value="FOOTER" style="rounded=1;whiteSpace=wrap;html=1;" vertex="1" parent="1">
          <mxGeometry x="90" y="870" width="640" height="60" as="geometry" />
        </mxCell>
        <mxCell id="UAI2w2BYB55zUR_XhJGC-1" value="&lt;b&gt;&lt;font style=&quot;font-size: 16px;&quot;&gt;HOME PAGE&lt;/font&gt;&lt;/b&gt;" style="text;html=1;strokeColor=none;fillColor=none;align=center;verticalAlign=middle;whiteSpace=wrap;rounded=0;" vertex="1" parent="1">
          <mxGeometry x="345" y="220" width="130" height="30" as="geometry" />
        </mxCell>
        <mxCell id="UAI2w2BYB55zUR_XhJGC-10" style="edgeStyle=orthogonalEdgeStyle;rounded=0;orthogonalLoop=1;jettySize=auto;html=1;" edge="1" parent="1" source="UAI2w2BYB55zUR_XhJGC-3" target="UAI2w2BYB55zUR_XhJGC-4">
          <mxGeometry relative="1" as="geometry" />
        </mxCell>
        <mxCell id="UAI2w2BYB55zUR_XhJGC-3" value="" style="rounded=0;whiteSpace=wrap;html=1;" vertex="1" parent="1">
          <mxGeometry x="110" y="450" width="190" height="190" as="geometry" />
        </mxCell>
        <mxCell id="UAI2w2BYB55zUR_XhJGC-4" value="ResturantCard" style="rounded=0;whiteSpace=wrap;html=1;" vertex="1" parent="1">
          <mxGeometry x="110" y="1020" width="190" height="190" as="geometry" />
        </mxCell>
        <mxCell id="UAI2w2BYB55zUR_XhJGC-8" value="FILTERS" style="rounded=1;whiteSpace=wrap;html=1;dashed=1;dashPattern=12 12;fillColor=none;glass=0;" vertex="1" parent="1">
          <mxGeometry x="770" y="445" width="290" height="390" as="geometry" />
        </mxCell>
        <mxCell id="UAI2w2BYB55zUR_XhJGC-12" value="" style="rounded=1;whiteSpace=wrap;html=1;" vertex="1" parent="1">
          <mxGeometry x="90" y="1440" width="1020" height="80" as="geometry" />
        </mxCell>
        <mxCell id="UAI2w2BYB55zUR_XhJGC-13" value="&lt;b&gt;TITLE&lt;/b&gt;" style="text;html=1;strokeColor=none;fillColor=none;align=center;verticalAlign=middle;whiteSpace=wrap;rounded=0;" vertex="1" parent="1">
          <mxGeometry x="130" y="1465" width="60" height="30" as="geometry" />
        </mxCell>
        <mxCell id="UAI2w2BYB55zUR_XhJGC-15" value="&lt;b&gt;SORT LIST&lt;/b&gt;" style="rounded=1;whiteSpace=wrap;html=1;" vertex="1" parent="1">
          <mxGeometry x="425" y="1450" width="680" height="60" as="geometry" />
        </mxCell>
        <mxCell id="UAI2w2BYB55zUR_XhJGC-16" value="SORT COMPONENT" style="rounded=0;whiteSpace=wrap;html=1;" vertex="1" parent="1">
          <mxGeometry x="440" y="1460" width="140" height="40" as="geometry" />
        </mxCell>
        <mxCell id="UAI2w2BYB55zUR_XhJGC-18" value="&lt;b&gt;&lt;font style=&quot;font-size: 16px;&quot;&gt;SORTING BAR&lt;/font&gt;&lt;/b&gt;" style="text;html=1;strokeColor=none;fillColor=none;align=center;verticalAlign=middle;whiteSpace=wrap;rounded=0;" vertex="1" parent="1">
          <mxGeometry x="540" y="1390" width="120" height="30" as="geometry" />
        </mxCell>
      </root>
    </mxGraphModel>
  </diagram>
  <diagram id="0TUUecAPpbZt6NLwNBBp" name="Page-2">
    <mxGraphModel dx="1434" dy="729" grid="1" gridSize="10" guides="1" tooltips="1" connect="1" arrows="1" fold="1" page="1" pageScale="1" pageWidth="850" pageHeight="1100" math="0" shadow="0">
      <root>
        <mxCell id="0" />
        <mxCell id="1" parent="0" />
      </root>
    </mxGraphModel>
  </diagram>
</mxfile>
